<mxfile host="app.diagrams.net" modified="2020-09-21T08:31:57.675Z" agent="5.0 (Windows NT 10.0; Win64; x64) AppleWebKit/537.36 (KHTML, like Gecko) Chrome/85.0.4183.102 Safari/537.36" etag="K42aXAhYitsNp19WJ2sy" version="13.0.9" type="github">
  <diagram id="tWdVrf-Qeg5_HdpOC5kV" name="Page-1">
    <mxGraphModel dx="700" dy="745" grid="1" gridSize="10" guides="1" tooltips="1" connect="1" arrows="1" fold="1" page="1" pageScale="1" pageWidth="850" pageHeight="1100" math="0" shadow="0">
      <root>
        <mxCell id="0" />
        <mxCell id="1" parent="0" />
        <mxCell id="Jaap6VVrAOP4JBxo27oL-3" style="edgeStyle=orthogonalEdgeStyle;rounded=0;orthogonalLoop=1;jettySize=auto;html=1;exitX=0.5;exitY=1;exitDx=0;exitDy=0;entryX=0.5;entryY=0;entryDx=0;entryDy=0;" parent="1" source="Jaap6VVrAOP4JBxo27oL-1" target="Jaap6VVrAOP4JBxo27oL-2" edge="1">
          <mxGeometry relative="1" as="geometry" />
        </mxCell>
        <mxCell id="Jaap6VVrAOP4JBxo27oL-1" value="Circuit" style="image;html=1;labelBackgroundColor=#ffffff;image=img/lib/clip_art/networking/Router_Icon_128x128.png" parent="1" vertex="1">
          <mxGeometry x="50" y="100" width="80" height="80" as="geometry" />
        </mxCell>
        <mxCell id="6kdEVWJAb7GGhUwH0cLp-5" style="edgeStyle=orthogonalEdgeStyle;rounded=0;orthogonalLoop=1;jettySize=auto;html=1;exitX=0.5;exitY=1;exitDx=0;exitDy=0;entryX=0.5;entryY=0;entryDx=0;entryDy=0;" edge="1" parent="1" source="Jaap6VVrAOP4JBxo27oL-2" target="6kdEVWJAb7GGhUwH0cLp-2">
          <mxGeometry relative="1" as="geometry" />
        </mxCell>
        <mxCell id="Jaap6VVrAOP4JBxo27oL-2" value="NETCOOL" style="rounded=1;whiteSpace=wrap;html=1;" parent="1" vertex="1">
          <mxGeometry x="150" y="240" width="120" height="60" as="geometry" />
        </mxCell>
        <mxCell id="6kdEVWJAb7GGhUwH0cLp-1" value="Alarm" style="text;html=1;strokeColor=none;fillColor=none;align=center;verticalAlign=middle;whiteSpace=wrap;rounded=0;" vertex="1" parent="1">
          <mxGeometry x="220" y="200" width="40" height="20" as="geometry" />
        </mxCell>
        <mxCell id="6kdEVWJAb7GGhUwH0cLp-4" style="edgeStyle=orthogonalEdgeStyle;rounded=0;orthogonalLoop=1;jettySize=auto;html=1;exitX=1;exitY=0.5;exitDx=0;exitDy=0;" edge="1" parent="1" source="6kdEVWJAb7GGhUwH0cLp-2" target="6kdEVWJAb7GGhUwH0cLp-3">
          <mxGeometry relative="1" as="geometry" />
        </mxCell>
        <mxCell id="6kdEVWJAb7GGhUwH0cLp-2" value="ICD" style="rounded=1;whiteSpace=wrap;html=1;" vertex="1" parent="1">
          <mxGeometry x="150" y="360" width="120" height="60" as="geometry" />
        </mxCell>
        <mxCell id="6kdEVWJAb7GGhUwH0cLp-8" style="edgeStyle=orthogonalEdgeStyle;rounded=0;orthogonalLoop=1;jettySize=auto;html=1;exitX=0.5;exitY=1;exitDx=0;exitDy=0;entryX=0.5;entryY=0;entryDx=0;entryDy=0;" edge="1" parent="1" source="6kdEVWJAb7GGhUwH0cLp-3" target="6kdEVWJAb7GGhUwH0cLp-7">
          <mxGeometry relative="1" as="geometry" />
        </mxCell>
        <mxCell id="6kdEVWJAb7GGhUwH0cLp-3" value="VERTICADB" style="shape=cylinder;whiteSpace=wrap;html=1;boundedLbl=1;backgroundOutline=1;" vertex="1" parent="1">
          <mxGeometry x="340" y="340" width="100" height="100" as="geometry" />
        </mxCell>
        <mxCell id="6kdEVWJAb7GGhUwH0cLp-6" value="Ticket" style="text;html=1;strokeColor=none;fillColor=none;align=center;verticalAlign=middle;whiteSpace=wrap;rounded=0;" vertex="1" parent="1">
          <mxGeometry x="220" y="320" width="40" height="20" as="geometry" />
        </mxCell>
        <mxCell id="6kdEVWJAb7GGhUwH0cLp-12" style="edgeStyle=orthogonalEdgeStyle;rounded=0;orthogonalLoop=1;jettySize=auto;html=1;exitX=0.5;exitY=1;exitDx=0;exitDy=0;entryX=0.5;entryY=0;entryDx=0;entryDy=0;" edge="1" parent="1" source="6kdEVWJAb7GGhUwH0cLp-7" target="6kdEVWJAb7GGhUwH0cLp-11">
          <mxGeometry relative="1" as="geometry" />
        </mxCell>
        <mxCell id="6kdEVWJAb7GGhUwH0cLp-7" value="TALA Script" style="rounded=1;whiteSpace=wrap;html=1;" vertex="1" parent="1">
          <mxGeometry x="330" y="510" width="120" height="60" as="geometry" />
        </mxCell>
        <mxCell id="6kdEVWJAb7GGhUwH0cLp-9" value="Text" style="text;html=1;strokeColor=none;fillColor=none;align=center;verticalAlign=middle;whiteSpace=wrap;rounded=0;" vertex="1" parent="1">
          <mxGeometry x="220" y="400" width="40" height="20" as="geometry" />
        </mxCell>
        <mxCell id="6kdEVWJAb7GGhUwH0cLp-10" value="Ticket Created on ICD" style="text;html=1;strokeColor=none;fillColor=none;align=center;verticalAlign=middle;whiteSpace=wrap;rounded=0;" vertex="1" parent="1">
          <mxGeometry x="330" y="460" width="40" height="20" as="geometry" />
        </mxCell>
        <mxCell id="6kdEVWJAb7GGhUwH0cLp-11" value="Send Email/Create FS3 Ticket" style="rounded=0;whiteSpace=wrap;html=1;" vertex="1" parent="1">
          <mxGeometry x="330" y="630" width="120" height="60" as="geometry" />
        </mxCell>
        <mxCell id="6kdEVWJAb7GGhUwH0cLp-14" style="edgeStyle=orthogonalEdgeStyle;rounded=0;orthogonalLoop=1;jettySize=auto;html=1;startArrow=classic;startFill=1;" edge="1" parent="1" source="6kdEVWJAb7GGhUwH0cLp-13" target="6kdEVWJAb7GGhUwH0cLp-7">
          <mxGeometry relative="1" as="geometry" />
        </mxCell>
        <mxCell id="6kdEVWJAb7GGhUwH0cLp-13" value="TALADB" style="shape=cylinder;whiteSpace=wrap;html=1;boundedLbl=1;backgroundOutline=1;" vertex="1" parent="1">
          <mxGeometry x="130" y="490" width="100" height="100" as="geometry" />
        </mxCell>
        <mxCell id="6kdEVWJAb7GGhUwH0cLp-15" value="Circuit List" style="text;html=1;strokeColor=none;fillColor=none;align=center;verticalAlign=middle;whiteSpace=wrap;rounded=0;" vertex="1" parent="1">
          <mxGeometry x="250" y="560" width="40" height="20" as="geometry" />
        </mxCell>
      </root>
    </mxGraphModel>
  </diagram>
</mxfile>
